{"title":"WWE Raw 01 31 2011 WS DSR XviD-XS","uid":6142176,"size":910963576,"categoryP":"video","categoryS":"tv_shows","magnet":"?xt=urn:btih:d1eb6e994e3b1638dc8da749be901d9f321681eb&amp;dn=WWE+Raw+01+31+2011+WS+DSR+XviD-XS&amp;tr=udp%3A%2F%2Ftracker.openbittorrent.com%3A80&amp;tr=udp%3A%2F%2Fopen.demonii.com%3A1337&amp;tr=udp%3A%2F%2Ftracker.coppersurfer.tk%3A6969&amp;tr=udp%3A%2F%2Fexodus.desync.com%3A6969","seeders":0,"leechers":0,"uploader":"SAFCukO09","files":2,"time":1296545227,"description":"n\tComplete name                    :WWE.Raw.01.31.2011.WS.DSR.XviD-XS.avi\nFormat                           : AVI\nFormat/Info                      : Audio Video Interleave\nFile size                        : 869 MiB\nDuration                         : 1h 34mn\nOverall bit rate                 : 1 281 Kbps\nWriting library                  : The File had been created by Solveig Multimedia AVI Writer\n\nVideo\nID                               : 0\nFormat                           : xvid\nCodec ID                         : xvid\nDuration                         : 1h 34mn\nBit rate                         : 1 139 Kbps\nWidth                            : 640 pixels\nHeight                           : 360 pixels\nDisplay aspect ratio             : 16:9\nFrame rate                       : 29.970 fps\nBits/(Pixel*Frame)               : 0.165\nStream size                      : 773 MiB (89%)\n\nAudio\nID                               : 1\nFormat                           : MPEG Audio\nFormat version                   : Version 1\nFormat profile                   : Layer 3\nMode                             : Joint stereo\nMode extension                   : MS Stereo\nCodec ID                         : 55\nCodec ID/Hint                    : MP3\nDuration                         : 1h 34mn\nBit rate mode                    : Constant\nBit rate                         : 128 Kbps\nChannel(s)                       : 2 channels\nSampling rate                    : 48.0 KHz\nCompression mode                 : Lossy\nVideo delay                      : 4ms\nStream size                      : 86.8 MiB (10%)\nAlignment                        : Aligned on interleaves","torrent":{"xt":"urn:btih:d1eb6e994e3b1638dc8da749be901d9f321681eb","amp;dn":"WWE+Raw+01+31+2011+WS+DSR+XviD-XS","amp;tr":["udp%3A%2F%2Ftracker.openbittorrent.com%3A80","udp%3A%2F%2Fopen.demonii.com%3A1337","udp%3A%2F%2Ftracker.coppersurfer.tk%3A6969","udp%3A%2F%2Fexodus.desync.com%3A6969"],"infoHash":"d1eb6e994e3b1638dc8da749be901d9f321681eb","infoHashBuffer":{"type":"Buffer","data":[209,235,110,153,78,59,22,56,220,141,167,73,190,144,29,159,50,22,129,235]},"announce":[],"urlList":[]}}